<svg xmlns="http://www.w3.org/2000/svg" width="120" height="120" viewBox="0 0 120 120" enable-background="new 0 0 416 286"><g fill="#878787"><path d="M59.993 10c-11.945 0-21.647 9.664-21.647 21.61 0 8.698 5.162 16.22 12.567 19.654-15.674 1.772-27.925 8.034-31.11 15.938h80.38C97 59.298 84.75 53.036 69.074 51.264 76.48 47.83 81.642 40.308 81.642 31.61c0-11.946-9.7-21.61-21.647-21.61z"/><path d="M12.27 68.525c-1.257 0-2.27 1.013-2.27 2.27L14.76 110h90.465l4.762-39.206c.15-1.247-1.013-2.27-2.27-2.27z"/></g></svg>